# xmcd CD database file
#
# Track frame offsets:
#	150
#	14298
#	30546
#	45669
#	62592
#	78165
#	91788
#	105411
#	122484
#	139032
#	151755
#
# Disc length: 2144 seconds
#
# Revision: 0
# Processed by: cddbd v1.5.2PL0 Copyright (c) Steve Scherf et al.
# Submitted via: CDex 1.70beta2
#
DISCID=72085e0b
DTITLE=Wurzels, the - USA - Cty. - The Combine Harvester
DYEAR=1900
DGENRE=Country
TTITLE0=The Blackbird
TTITLE1=Somerset Born and Proud
TTITLE2=Keep yer hand on yer halfpenny
TTITLE3=Crabapple Hill
TTITLE4=Middle for Diddle
TTITLE5=I am a Cider Drinker
TTITLE6=The Combine Harvester
TTITLE7=Let there not be Light
TTITLE8=Down in Nempnett Thrubwell
TTITLE9=Call of the West
TTITLE10=My Somerset Crumpet Horn
EXTD=
EXTT0=
EXTT1=
EXTT2=
EXTT3=
EXTT4=
EXTT5=
EXTT6=
EXTT7=
EXTT8=
EXTT9=
EXTT10=
PLAYORDER=
